<svg width="61.000000" height="46.000000" viewBox="0 0 61 46" fill="none" xmlns="http://www.w3.org/2000/svg" xmlns:xlink="http://www.w3.org/1999/xlink">
	<defs>
		<clipPath id="clip5_1599">
			<rect id="Frame" width="61.000000" height="46.000000" fill="white" fill-opacity="0"/>
		</clipPath>
	</defs>
	<rect id="Frame" width="61.000000" height="46.000000" fill="#FFFFFF" fill-opacity="0"/>
	<g clip-path="url(#clip5_1599)">
		<path id="Vector" d="M19.29 44.73C19.85 40.1 16.62 36.64 13.18 33.97C11.17 32.42 9.21 31.12 7.9 28.89C7.23 27.75 6.59 26.46 6.22 25.2C5.49 22.73 6.75 18.85 9.87 21.7C11.67 23.34 12.09 25.45 13.46 27.28C14.24 28.31 15.43 28.86 16.67 28.2C20.4 26.23 17.51 19.38 16.68 16.66C15.67 13.37 15.14 10.2 16.84 7.03C17.4 5.99 18.02 4.92 18.74 3.98C19.2 3.37 19.79 2.72 20.46 2.3C21.83 1.43 22.65 1.43 24.17 1.89C25.78 2.39 25.8 2.47 26.13 4C26.28 4.71 26.34 5.48 26.38 6.21C26.45 7.76 26.33 9.31 26.01 10.83C25.41 13.7 23.68 16.25 23.3 19.17C23.02 21.31 23.22 28.14 26.81 27.5C31.01 26.75 30.71 20.09 34.91 19.2C38.4 18.46 40.1 22.24 38.62 24.84C37.82 26.25 36.48 27.34 35.2 28.31C32.91 30.03 30.11 30.93 27.86 32.66C23.79 35.82 25.14 40.78 26.81 44.85C27.14 45.63 28.44 45.29 28.11 44.49C26.99 41.75 25.57 38.39 27.1 35.51C28.51 32.85 32.23 31.91 34.63 30.34C37.88 28.21 42.54 24.21 39.79 20C37.49 16.48 33.03 17.66 30.93 20.61C30.3 21.5 29.81 22.48 29.24 23.42C28.98 23.85 28.73 24.28 28.43 24.68C28.21 24.94 27.99 25.19 27.78 25.45C26.07 25.82 25.18 25.37 25.12 24.09C23.41 20.5 25.49 16.82 26.65 13.51C27.51 11.05 27.88 8.42 27.7 5.82C27.57 4.02 27.38 1.59 25.67 0.51C24.16 -0.44 21.83 0.11 20.35 0.84C18.14 1.95 16.79 4.28 15.67 6.37C12.8 11.71 15.7 16.42 16.76 21.8C16.9 22.51 17.26 24.08 17.02 24.88C16.29 25.54 15.56 26.19 14.83 26.85C14.41 26.32 14.09 25.74 13.87 25.11C13.45 24.18 13 23.31 12.38 22.48C11.41 21.18 9.57 19.03 7.69 19.14C5.86 19.24 4.79 21.15 4.59 22.73C4.31 25.08 5.58 27.58 6.74 29.57C9.94 35.09 18.86 37.12 17.94 44.74C17.84 45.58 19.2 45.58 19.29 44.73Z" fill="#46A358" fill-opacity="1.000000" fill-rule="nonzero"/>
		<path id="Vector" d="M30.98 22.57C31.96 17.7 30.12 13.25 29.73 8.45C29.5 5.57 30.74 0.98 34.68 2.29C37.62 3.26 38.73 6.71 38.53 9.47C38.39 11.49 37.41 17.41 41.35 16.86C44.73 16.39 46.48 10.83 48.12 8.48C49.52 6.46 52.63 3.51 55.36 4.33C59.69 5.64 56.92 10.76 54.93 12.77C51.57 16.16 47.99 19.16 45.02 22.94C43.31 25.13 41.82 28.73 45.63 29.72C47.09 30.09 48.5 29.59 49.83 29C50.89 28.52 51.9 27.94 53.04 27.63C55.1 27.05 57.5 27.5 56.13 30.03C52.93 35.96 45.61 31.59 40.89 34.07C36.89 36.18 35.96 40.85 36.33 44.95C36.41 45.8 37.77 45.8 37.69 44.95C37.42 42.09 37.65 39.01 39.65 36.74C42.24 33.82 45.7 34.89 49.12 34.82C52.62 34.75 57.13 33.08 57.85 29.23C58.65 25 53.77 25.82 51.26 26.84C50.16 27.29 49.13 27.99 47.97 28.32C47.06 28.58 45.61 28.72 44.89 27.87C44.19 27.04 44.75 25.65 45.19 24.95C46.77 22.37 49.19 20.02 51.35 17.9C54.32 14.98 59.39 11.87 58.95 7.1C58.62 3.45 55.2 2.12 52.05 3.48C50.16 4.31 48.59 5.61 47.35 7.25C45.74 9.37 44.88 12.3 42.95 14.18C42.26 14.85 41.58 16.29 40.03 14.88C39.34 14.25 39.54 12.58 39.62 11.72C39.71 10.6 39.96 9.5 39.92 8.37C39.86 6.45 39.22 4.51 37.96 3.02C35.3 -0.11 30.73 0.03 28.96 3.96C27.91 6.3 28.37 8.99 28.81 11.42C29.46 15.02 30.41 18.55 29.68 22.21C29.51 23.05 30.82 23.41 30.98 22.57Z" fill="#46A358" fill-opacity="1.000000" fill-rule="nonzero"/>
		<path id="Vector" d="M30.68 31C30.04 35.58 29 40.07 27.55 44.47C27.28 45.29 28.59 45.64 28.85 44.83C30.31 40.43 31.35 35.94 31.98 31.36C32.1 30.51 30.8 30.15 30.68 31Z" fill="#46A358" fill-opacity="1.000000" fill-rule="nonzero"/>
		<path id="Vector" d="M14.5 43.97C14.33 40.44 11.84 38.06 8.98 36.24C7.13 35.06 5.1 34.08 3.51 32.55C2.82 31.89 1.55 30.61 1.48 29.59C1.25 26.18 5.47 28.84 6.41 29.62C7.07 30.18 8.03 29.24 7.37 28.68C5.89 27.44 3.25 25.83 1.22 26.76C-0.41 27.51 -0.14 29.37 0.49 30.72C3.12 36.42 12.8 37.07 13.15 43.97C13.19 44.82 14.55 44.83 14.5 43.97Z" fill="#46A358" fill-opacity="1.000000" fill-rule="nonzero"/>
		<path id="Vector" d="M44.83 45.29C46.52 42.78 48.74 40.73 51.47 39.35C53.95 38.1 57.02 37.88 59.22 36.11C61.74 34.07 61.87 29.08 57.7 29.21C56.83 29.24 56.83 30.57 57.7 30.54C59.34 30.77 60.01 31.66 59.71 33.23C59.37 34.13 58.8 34.85 57.99 35.36C57 36.05 55.8 36.37 54.67 36.72C53.22 37.18 51.81 37.65 50.47 38.36C47.68 39.85 45.41 42.03 43.66 44.62C43.18 45.33 44.35 46 44.83 45.29Z" fill="#46A358" fill-opacity="1.000000" fill-rule="nonzero"/>
		<path id="Vector" d="M48.51 33.56C42.78 34.62 40.66 40.25 39.31 45.17C39.08 46 40.38 46.35 40.61 45.52C41.84 41.05 43.63 35.82 48.87 34.85C49.72 34.68 49.36 33.4 48.51 33.56Z" fill="#46A358" fill-opacity="1.000000" fill-rule="nonzero"/>
		<path id="Vector" d="M18.29 13.26C17.62 10.6 18.46 7.68 20.63 5.89C21.07 5.52 21.56 5.23 22.11 5.03C23.61 5.34 24.31 6.13 24.2 7.4C24.23 8.14 24.09 8.87 23.91 9.58C23.56 11.01 22.93 12.38 22.46 13.78C21.27 17.4 19.55 23.32 22.78 26.4C23.09 26.7 23.57 26.23 23.26 25.93C20.43 23.23 21.88 18.04 22.85 14.81C23.69 12.01 25.96 8.29 24.43 5.35C23.23 3.05 20.48 4.92 19.31 6.26C17.58 8.25 17 10.92 17.63 13.44C17.74 13.86 18.39 13.68 18.29 13.26Z" fill="#46A358" fill-opacity="1.000000" fill-rule="nonzero"/>
		<path id="Vector" d="M32.58 24.06C32.97 23.21 33.76 22.01 34.81 21.87C36.41 21.65 37.23 23.63 36.37 24.94C35.57 26.18 34.03 27.04 32.7 27.57C30.5 28.44 29.02 29.65 27.42 31.38C27.13 31.7 27.6 32.17 27.9 31.85C28.87 30.8 29.86 29.71 31.12 28.98C32.13 28.4 33.3 28.17 34.31 27.6C35.54 26.9 37.53 25.4 37.67 23.88C37.79 22.65 36.48 21.23 35.25 21.15C33.77 21.06 32.54 22.55 32 23.72C31.82 24.11 32.41 24.45 32.58 24.06Z" fill="#46A358" fill-opacity="1.000000" fill-rule="nonzero"/>
		<path id="Vector" d="M7.3 24.83C7.44 23.66 7.89 23.23 8.63 23.55C8.89 23.55 9.11 23.64 9.29 23.83C9.64 24.06 9.88 24.4 10.09 24.76C10.47 25.4 10.65 26.16 10.93 26.84C11.28 27.72 11.75 28.44 12.56 28.96C12.92 29.2 13.26 28.62 12.9 28.38C10.92 27.08 11.47 23.72 8.99 22.9C7.5 22.41 6.01 23.68 6.71 25.16C6.9 25.56 7.48 25.22 7.3 24.83Z" fill="#46A358" fill-opacity="1.000000" fill-rule="nonzero"/>
		<path id="Vector" d="M31.53 7.58C31.18 5.66 33.23 4.13 34.8 5.53C35.66 6.3 36 7.73 36 8.84C36.01 10.34 35.31 11.69 35.61 13.2C35.69 13.62 36.34 13.45 36.26 13.02C35.89 11.13 36.96 9.31 36.48 7.34C36.19 6.16 35.6 4.85 34.37 4.4C32.14 3.61 30.5 5.73 30.87 7.75C30.96 8.17 31.6 8 31.53 7.58Z" fill="#46A358" fill-opacity="1.000000" fill-rule="nonzero"/>
		<path id="Vector" d="M31.19 11.98C32.29 14.26 32.83 16.26 32.75 18.79C32.74 19.22 33.41 19.21 33.43 18.79C33.51 16.13 32.93 14.02 31.78 11.64C31.59 11.26 31 11.59 31.19 11.98Z" fill="#46A358" fill-opacity="1.000000" fill-rule="nonzero"/>
		<path id="Vector" d="M48.73 10.07C49.38 8.6 50.62 7.67 52.05 6.97C52.46 6.76 52.88 6.58 53.32 6.44C55.23 7.09 55.71 7.97 54.77 9.11C54.32 9.81 53.67 10.43 53.1 11.05C50.96 13.38 48.64 15.54 46.19 17.56C45.86 17.83 46.34 18.31 46.67 18.03C48.88 16.21 50.99 14.27 52.96 12.19C54.14 10.94 56.4 9.09 55.91 7.11C54.92 3.2 48.97 7.86 48.14 9.73C47.97 10.12 48.56 10.46 48.73 10.07Z" fill="#46A358" fill-opacity="1.000000" fill-rule="nonzero"/>
		<path id="Vector" d="M44.91 19.98C42.75 21.55 41.44 23.83 41.19 26.45C41.15 26.88 41.83 26.88 41.87 26.45C42.09 24.08 43.3 21.97 45.25 20.55C45.6 20.31 45.26 19.72 44.91 19.98Z" fill="#46A358" fill-opacity="1.000000" fill-rule="nonzero"/>
		<path id="Vector" d="M49.19 31.1C49.63 30.84 50.07 30.57 50.54 30.34C50.89 30.15 51.26 30 51.65 29.9C52.37 29.6 52.62 30.16 52.37 31.57C51.9 32.49 49.31 32.53 48.5 32.48C46.5 32.37 44.61 31.82 42.63 32.42C42.21 32.55 42.39 33.19 42.81 33.07C45.19 32.34 47.5 33.4 49.9 33.13C51.2 32.99 53.05 32.4 53.69 31.15C54.06 30.46 53.97 29.54 53.18 29.16C51.89 28.55 49.87 29.92 48.85 30.53C48.48 30.75 48.82 31.33 49.19 31.1Z" fill="#46A358" fill-opacity="1.000000" fill-rule="nonzero"/>
		<path id="Vector" d="M39.13 33.58C35.62 36.4 34.34 40.66 33.98 44.97C33.94 45.39 34.62 45.39 34.66 44.97C35 40.83 36.23 36.76 39.61 34.05C39.95 33.78 39.47 33.32 39.13 33.58Z" fill="#46A358" fill-opacity="1.000000" fill-rule="nonzero"/>
		<path id="Vector" d="M24 34.72C22.95 36.5 22.98 38.45 23.21 40.45C23.41 42.13 23.63 43.78 24.8 45.09C25.09 45.41 25.57 44.94 25.28 44.62C24.13 43.34 23.98 41.56 23.83 39.92C23.67 38.22 23.69 36.57 24.58 35.05C24.8 34.68 24.22 34.35 24 34.72Z" fill="#46A358" fill-opacity="1.000000" fill-rule="nonzero"/>
		<path id="Vector" d="M5.34 30.33C3.38 30.35 4.16 32.38 5.2 33.11C6.51 34.02 8 34.63 9.39 35.4C11.02 36.31 11.68 37.84 12.94 39.11C13.24 39.42 13.72 38.95 13.42 38.64C12.17 37.38 11.57 35.86 9.96 34.95C9.14 34.5 8.29 34.11 7.48 33.67C7.05 33.44 6.63 33.21 6.22 32.96C6.06 32.86 5.89 32.76 5.73 32.66C4.92 32.36 4.8 31.81 5.34 31C5.77 30.99 5.77 30.32 5.34 30.33Z" fill="#46A358" fill-opacity="1.000000" fill-rule="nonzero"/>
		<path id="Vector" d="M56.23 33.4C56.26 34.29 55.84 34.77 54.98 34.86C54.56 35.02 54.15 35.18 53.74 35.34C53.12 35.59 52.5 35.83 51.88 36.08C50.44 36.65 48.99 37.22 47.55 37.79C47.15 37.94 47.32 38.59 47.73 38.43C49.38 37.78 51.03 37.13 52.68 36.48C53.9 35.99 55.46 35.65 56.55 34.89C57.49 34.23 57.52 32.87 56.23 32.73C55.8 32.68 55.8 33.35 56.23 33.4Z" fill="#46A358" fill-opacity="1.000000" fill-rule="nonzero"/>
		<path id="Vector" d="M46 38.71C44.18 40.4 42.76 42.39 41.75 44.63C41.57 45.02 42.15 45.36 42.33 44.97C43.32 42.78 44.7 40.84 46.48 39.19C46.79 38.89 46.31 38.42 46 38.71Z" fill="#46A358" fill-opacity="1.000000" fill-rule="nonzero"/>
		<path id="Vector" d="M14.55 41.63C15.06 42.39 15.4 43.2 15.56 44.1C15.63 44.52 16.28 44.34 16.21 43.92C16.04 42.97 15.68 42.09 15.13 41.29C14.89 40.94 14.3 41.27 14.55 41.63Z" fill="#46A358" fill-opacity="1.000000" fill-rule="nonzero"/>
	</g>
</svg>
